# xmcd
#
# Track frame offsets:
# 150
# 58962
# 104262
# 153987
# 202962
#
# Disc length: 3489 seconds
#
# Revision: 0
# Processed by: cddbd v1.5PL3 Copyright (c) Steve Scherf et al.
# Submitted via: Axialis_AX_CDPlayer 2.6
#
DISCID=3d0d9f05
DTITLE=June Carter Cash - The Making of Wildwood Flower Radio Special
DYEAR=1900
DGENRE=
TTITLE0=Segment 1/Outcue: "...We'll Be Right Back" (Music Fade)
TTITLE1=Segment 2/Outcue: "...We'll Be Right Back" (Music Fade)
TTITLE2=Segment 3/Outcue: "...We'll Be Right Back" (Music Fade)
TTITLE3=Segment 4/Outcue: "...We'll Be Right Back" (Music Fade)
TTITLE4=Segment 5/Outcue: "...Because I Always Miss Them" (Music Fade)
EXTD=Hosted by John Carter Cash, featuring interviews with June Carter Cash,
EXTD=\nJohnny Cash, Rodney Crowell, and Marty Stuart
EXTT0=
EXTT1=
EXTT2=
EXTT3=
EXTT4=
PLAYORDER=
